<svg width="24" height="24" viewBox="0 0 24 24" xmlns="http://www.w3.org/2000/svg">
    <path d="M7.00003 18C6.80228 18 6.60898 17.9413 6.44457 17.8314C6.28016 17.7215 6.15202 17.5654 6.07635 17.3827C6.00068 17.2 5.98088 16.9989 6.01945 16.805C6.05802 16.611 6.15322 16.4329 6.29303 16.293L16.293 6.293C16.4811 6.10829 16.7345 6.00533 16.9982 6.00653C17.2618 6.00772 17.5142 6.11297 17.7007 6.29938C17.8871 6.48578 17.9923 6.73826 17.9935 7.00188C17.9947 7.26549 17.8917 7.51891 17.707 7.707L7.70703 17.707C7.6143 17.8 7.5041 17.8738 7.38277 17.9241C7.26144 17.9743 7.13137 18.0002 7.00003 18Z" />
    <path d="M17.0001 18C16.8687 18.0002 16.7387 17.9743 16.6173 17.9241C16.496 17.8738 16.3858 17.8 16.2931 17.707L6.29308 7.707C6.10837 7.51891 6.00541 7.26549 6.0066 7.00188C6.0078 6.73826 6.11305 6.48578 6.29945 6.29938C6.48586 6.11297 6.73834 6.00772 7.00195 6.00653C7.26557 6.00533 7.51899 6.10829 7.70708 6.293L17.7071 16.293C17.8469 16.4329 17.9421 16.611 17.9807 16.805C18.0192 16.9989 17.9994 17.2 17.9238 17.3827C17.8481 17.5654 17.7199 17.7215 17.5555 17.8314C17.3911 17.9413 17.1978 18 17.0001 18Z" />
</svg>
