<svg width="16" height="16" viewBox="0 0 16 16" xmlns="http://www.w3.org/2000/svg">
    <path d="M10.6667 5.33333H13.6L10 1.73333V4.66667C10 5.06667 10.2667 5.33333 10.6667 5.33333ZM10.6667 6.66667C9.53333 6.66667 8.66667 5.8 8.66667 4.66667V1.33333H6.66667C5.53333 1.33333 4.66667 2.2 4.66667 3.33333V4H4C2.86667 4 2 4.86667 2 6V12.6667C2 13.8 2.86667 14.6667 4 14.6667H9.33333C10.4667 14.6667 11.3333 13.8 11.3333 12.6667V12H12C13.1333 12 14 11.1333 14 10V6.66667H10.6667ZM10 12.6667C10 13.0667 9.73333 13.3333 9.33333 13.3333H4C3.6 13.3333 3.33333 13.0667 3.33333 12.6667V6C3.33333 5.6 3.6 5.33333 4 5.33333H4.66667V10C4.66667 11.1333 5.53333 12 6.66667 12H10V12.6667Z" />
</svg>
