<svg width="119" height="28" viewBox="0 0 119 28" fill="none" xmlns="http://www.w3.org/2000/svg">
<g clip-path="url(#clip0_36_15)">
<path d="M102.276 9.22459C101.417 8.38294 100.377 7.74815 99.2358 7.36841C98.0946 6.98867 96.8818 6.87397 95.6897 7.03303C94.4975 7.1921 93.3573 7.62075 92.3556 8.28641C91.3538 8.95207 90.517 9.83726 89.9085 10.8747C89.2229 12.0851 88.8665 13.454 88.8749 14.8451C88.8564 15.866 89.0487 16.8799 89.4399 17.8231C89.8311 18.7663 90.4127 19.6187 91.1484 20.3269C91.8775 21.0641 92.749 21.6452 93.7099 22.0349C94.6707 22.4246 95.7009 22.6146 96.7375 22.5935C98.284 22.5868 99.794 22.1234 101.078 21.2614C102.362 20.3994 103.363 19.1773 103.954 17.7486C104.546 16.3198 104.703 14.748 104.404 13.2306C104.106 11.7132 103.365 10.3179 102.277 9.21972L102.276 9.22459ZM102.191 18.0074C101.646 18.9671 100.85 19.7603 99.8887 20.3018C98.9124 20.8609 97.8055 21.1515 96.6804 21.144C95.8536 21.1465 95.0345 20.9849 94.2705 20.6686C93.5066 20.3523 92.813 19.8876 92.2299 19.3014C91.6468 18.7151 91.1858 18.019 90.8737 17.2533C90.5615 16.4877 90.4045 15.6677 90.4115 14.8409C90.3962 13.7031 90.6822 12.5816 91.2404 11.5901C91.6498 10.8664 92.1991 10.2315 92.8564 9.72228C93.5137 9.21309 94.2658 8.83982 95.0688 8.62425C95.8718 8.40868 96.7097 8.35513 97.5336 8.46669C98.3576 8.57825 99.151 8.8527 99.8678 9.27406C100.841 9.82016 101.647 10.6196 102.202 11.5873C102.757 12.5551 103.04 13.6551 103.02 14.7705C103.033 15.9038 102.747 17.0205 102.191 18.0081V18.0074ZM118.533 18.0074V18.0506C118.539 18.66 118.41 19.2632 118.156 19.8171C117.902 20.371 117.529 20.8619 117.063 21.2547C115.997 22.1212 114.652 22.5692 113.28 22.5148C112.195 22.5233 111.119 22.3051 110.123 21.8739C109.145 21.4393 108.257 20.8234 107.508 20.0587L108.589 19.0139C109.193 19.6504 109.92 20.1567 110.727 20.5019C111.534 20.8471 112.402 21.0239 113.28 21.0214C115.509 21.0214 117.02 19.8254 117.02 18.0534V18.0102C117.045 17.684 116.992 17.3564 116.864 17.0553C116.736 16.7541 116.537 16.4881 116.285 16.2799C115.309 15.6281 114.202 15.198 113.042 15.0199C111.734 14.8323 110.485 14.3505 109.389 13.6108C108.998 13.3021 108.686 12.9048 108.479 12.4516C108.273 11.9985 108.177 11.5025 108.2 11.005V10.9625C108.195 10.4366 108.314 9.91692 108.548 9.44609C108.775 8.96465 109.099 8.53556 109.5 8.18604C110.435 7.43205 111.606 7.03135 112.808 7.05414C113.686 7.06327 114.556 7.22229 115.38 7.52433C116.159 7.83239 116.888 8.25727 117.539 8.78438L116.589 9.93717C115.523 9.05506 114.188 8.56504 112.805 8.54894C111.974 8.52267 111.161 8.79444 110.513 9.31515C110.268 9.51414 110.069 9.76463 109.931 10.0489C109.792 10.3332 109.718 10.6443 109.714 10.9604V11.0029C109.688 11.275 109.733 11.5491 109.842 11.7994C109.952 12.0497 110.123 12.2682 110.34 12.4343C111.263 13.0267 112.303 13.4128 113.389 13.5662C114.792 13.7828 116.124 14.324 117.28 15.1467C117.696 15.4943 118.025 15.9334 118.242 16.4296C118.46 16.9258 118.559 17.4656 118.533 18.0067L118.533 18.0074ZM84.3842 10.509C83.5869 9.2739 82.3927 8.34722 80.9983 7.88166C79.4213 7.44986 77.7864 7.26817 76.1531 7.34322H73.068V22.2243H77.8046C79.2906 22.2987 80.7732 22.0219 82.1322 21.4163C83.1949 20.843 84.0666 19.9714 84.6398 18.9087C85.3006 17.7031 85.6328 16.3449 85.6032 14.9704C85.6464 13.3955 85.2222 11.8431 84.3842 10.509ZM83.1304 18.4636C82.5012 19.4036 81.5683 20.099 80.4877 20.4335C79.0853 20.7511 77.6467 20.8794 76.2102 20.8152H74.489V8.7997H75.5443C77.0911 8.73741 78.6393 8.88051 80.1485 9.22529C81.3325 9.55821 82.3611 10.2982 83.0531 11.3149C83.7696 12.4044 84.1332 13.688 84.0944 14.9913C84.131 16.2186 83.7951 17.4281 83.1311 18.4609L83.1304 18.4636ZM40.7105 11.5859C40.1454 12.5726 39.8566 13.6935 39.8746 14.8304C39.853 15.6756 40.0082 16.516 40.3303 17.2977C40.6523 18.0794 41.1341 18.7852 41.7449 19.3698C42.368 19.9732 43.1059 20.4452 43.9149 20.7579C44.7238 21.0707 45.5874 21.2179 46.4543 21.1906C47.4543 21.2043 48.4444 20.9908 49.3499 20.5662C50.2555 20.1416 51.0528 19.517 51.6819 18.7395L52.8577 19.6318C52.1205 20.5728 51.1684 21.3233 50.0812 21.8203C48.9135 22.3481 47.6436 22.6116 46.3623 22.5921C45.2062 22.647 44.0524 22.442 42.9859 21.9922C41.9194 21.5423 40.9675 20.859 40.2 19.9926C38.9368 18.5209 38.2633 16.6335 38.3095 14.6946C38.2875 13.6691 38.4803 12.6503 38.8755 11.7037C39.2706 10.7571 39.8594 9.90368 40.6039 9.19813C41.3624 8.46162 42.2609 7.88486 43.2463 7.50198C44.2318 7.11911 45.284 6.93791 46.3407 6.96916C47.641 6.95059 48.9281 7.23185 50.1021 7.7911C51.1976 8.32396 52.1443 9.1196 52.8577 10.1071L51.6819 11.0064C51.0678 10.1913 50.2694 9.53343 49.3519 9.08667C48.4177 8.64573 47.3953 8.42326 46.3623 8.4361C45.2061 8.42646 44.0678 8.72173 43.062 9.29217C42.0857 9.82946 41.2731 10.6211 40.7105 11.5831V11.5859ZM67.7889 7.34322H69.2335V16.2904C69.2335 17.9547 68.5724 19.5508 67.3956 20.7277C66.2187 21.9045 64.6226 22.5656 62.9583 22.5656C61.294 22.5656 59.6979 21.9045 58.5211 20.7277C57.3443 19.5508 56.6831 17.9547 56.6831 16.2904V7.34043H58.1208V16.2904C58.1208 17.5725 58.6301 18.802 59.5367 19.7086C60.4432 20.6152 61.6728 21.1245 62.9548 21.1245C64.2369 21.1245 65.4665 20.6152 66.3731 19.7086C67.2796 18.802 67.7889 17.5725 67.7889 16.2904V7.34322Z" fill="#1B2031"/>
</g>
<g clip-path="url(#clip1_36_15)">
<path d="M23.8957 4.10535C21.6057 1.81949 18.5941 0.398275 15.3739 0.0838132C12.1536 -0.230649 8.92398 0.581091 6.23508 2.38076C3.54618 4.18042 1.56437 6.8567 0.62726 9.95365C-0.30985 13.0506 -0.144293 16.3767 1.09573 19.3652C2.33575 22.3538 4.57352 24.8201 7.42784 26.3438C10.2822 27.8675 13.5765 28.3545 16.7496 27.7218C19.9227 27.0891 22.7783 25.3758 24.8299 22.8738C26.8816 20.3719 28.0023 17.236 28.0013 14.0003C27.9971 10.2884 26.5206 6.72982 23.8957 4.10535ZM13.2759 26.5243C10.0865 26.3293 7.09161 24.9248 4.90218 22.5973C2.71276 20.2698 1.49374 17.1947 1.49374 13.9993C1.49374 10.8038 2.71276 7.72876 4.90218 5.40129C7.09161 3.07382 10.0865 1.66929 13.2759 1.47423V6.22229C11.3374 6.4017 9.53568 7.29868 8.22403 8.73737C6.91237 10.1761 6.1853 12.0527 6.1853 13.9996C6.1853 15.9465 6.91237 17.8232 8.22403 19.2619C9.53568 20.7006 11.3374 21.5975 13.2759 21.7769V26.5243ZM14.0003 20.3634C12.5262 20.3647 11.0973 19.8547 9.95706 18.9204C8.81686 17.9861 8.03596 16.6852 7.74746 15.2396C7.45897 13.794 7.68076 12.293 8.37499 10.9926C9.06922 9.6922 10.1929 8.67281 11.5546 8.10817C12.9163 7.54353 14.4316 7.4686 15.8424 7.89616C17.2531 8.32373 18.4719 9.2273 19.291 10.4529C20.1101 11.6785 20.4789 13.1503 20.3344 14.6173C20.1899 16.0843 19.5411 17.4558 18.4986 18.4981C17.306 19.6916 15.6882 20.3625 14.001 20.3634H14.0003ZM23.1191 22.6072C20.9235 24.9355 17.9214 26.337 14.7267 26.525V21.7769C16.6653 21.5975 18.4669 20.7006 19.7786 19.2619C21.0903 17.8232 21.8173 15.9465 21.8173 13.9996C21.8173 12.0527 21.0903 10.1761 19.7786 8.73737C18.4669 7.29868 16.6653 6.4017 14.7267 6.22229V1.47423C17.1096 1.61503 19.4029 2.43263 21.3375 3.83103C23.2721 5.22944 24.7676 7.15066 25.6487 9.36921C26.5298 11.5878 26.7598 14.0116 26.3117 16.3563C25.8636 18.701 24.7561 20.8692 23.1191 22.6065V22.6072Z" fill="url(#paint0_linear_36_15)"/>
</g>
<defs>
<linearGradient id="paint0_linear_36_15" x1="4.11191" y1="23.9076" x2="23.8897" y2="4.1303" gradientUnits="userSpaceOnUse">
<stop offset="0.005" stop-color="#4E9DF7"/>
<stop offset="0.996" stop-color="#6CD8F9"/>
<stop offset="1" stop-color="#6DD9FA"/>
</linearGradient>
<clipPath id="clip0_36_15">
<rect width="80.2231" height="15.6327" fill="white" transform="translate(38.3102 6.96548)"/>
</clipPath>
<clipPath id="clip1_36_15">
<rect width="28" height="28" fill="white"/>
</clipPath>
</defs>
</svg>
