<?xml version="1.0" encoding="UTF-8"?> <svg xmlns="http://www.w3.org/2000/svg" xmlns:xlink="http://www.w3.org/1999/xlink" viewBox="0 0 997.88 229.04"><defs><style>.e{fill:url(#d);}.f{fill:#222635;}</style><linearGradient id="d" x1="33.54" y1="195.5" x2="195.5" y2="33.54" gradientTransform="matrix(1, 0, 0, 1, 0, 0)" gradientUnits="userSpaceOnUse"><stop offset="0" stop-color="#4c80e9"></stop><stop offset="1" stop-color="#91d2f5"></stop></linearGradient></defs><g id="a"></g><g id="b"><g id="c"><g><g><g><path class="f" d="M817.71,67.44c-12.51-12.4-27.99-18.57-46.5-18.57-22.81-.05-43.94,12.17-55.11,32.13-5.65,9.95-8.55,21.18-8.5,32.65-.05,17.63,6.23,32.64,18.68,45.04,12.51,12.39,27.82,18.63,45.92,18.63s33.05-6.23,45.51-18.68c12.45-12.51,18.68-27.64,18.68-45.56,.06-18.04-6.23-33.29-18.68-45.62Zm-.7,72.16c-4.48,7.86-11,14.43-18.92,18.85-8.03,4.6-17.11,6.98-26.36,6.92-14.2,0-26.36-5-36.43-15.01-10.07-10.01-15.07-22.23-15.07-36.78,0-9.83,2.27-18.74,6.81-26.71,9.25-16.01,26.25-25.96,44.69-26.13,9.2,0,18.21,2.44,26.19,7.1,7.91,4.48,14.55,10.99,19.09,18.85,4.54,7.8,6.81,16.53,6.81,26.3s-2.27,18.62-6.81,26.6Z"></path><path class="f" d="M951.28,139.59v.35c0,10.35-4.26,19.65-12.08,26.32-7.82,6.84-18.65,10.35-31.08,10.35-9.24,0-17.94-1.75-25.93-5.26-7.82-3.33-14.92-8.42-21.49-14.91l8.88-8.6c10.83,10.88,23.8,16.49,38.55,16.49,18.29,0,30.73-9.83,30.73-24.39v-.35c0-6.32-1.77-10.71-6.04-14.22-4.98-4.04-13.68-7.54-26.64-10.35-14.39-2.98-23.8-6.67-30.02-11.58-6.57-5.26-9.77-12.29-9.77-21.41v-.35c0-4.39,.89-8.6,2.84-12.46,1.78-3.86,4.44-7.37,7.82-10.35,7.11-5.96,16.7-9.3,27.18-9.3,7.11,0,14.21,1.41,21.13,3.86,6.22,2.46,12.08,5.79,17.77,10.35l-7.82,9.47c-9.59-7.54-20.07-11.41-31.09-11.41-7.46,0-14.21,2.28-18.83,6.32-4.26,3.69-6.57,8.42-6.57,13.51v.35c0,5.44,1.42,8.78,5.15,11.76,4.62,3.68,12.62,6.66,25.05,9.3,15.1,3.33,25.22,7.36,31.97,12.98,6.93,5.79,10.3,13.51,10.3,23.52Z"></path><path class="f" d="M670.72,77.97c-6.7-10.24-15.95-17.46-27.82-21.59-8.26-2.97-21.53-4.42-39.81-4.42h-25.37v122.27h38.93c15.25,0,27.12-2.21,35.56-6.64,8.44-4.42,15.3-11.28,20.6-20.6,5.29-9.31,7.91-20.14,7.91-32.36,0-14.2-3.32-26.42-10.01-36.66Zm-10.3,65.35c-5.3,7.8-12.51,13.21-21.71,16.18-6.52,2.09-18.27,3.14-35.14,3.14h-14.14V63.95h8.67c17.58,0,30.2,1.17,37.83,3.49,10.19,3.08,18.16,8.78,23.86,17.17,5.7,8.32,8.55,18.39,8.55,30.2s-2.68,20.72-7.91,28.51Z"></path><path class="f" d="M311.88,86.82c-4.59,7.92-6.86,16.76-6.86,26.65,0,14.9,5.12,27.36,15.36,37.3,10.24,9.96,23.1,14.96,38.69,14.96,17.11,0,31.43-6.69,42.95-20.14l9.66,7.33c-6.05,7.74-13.91,13.91-22.81,17.98-9.14,4.25-19.32,6.34-30.55,6.34-21.35,0-38.23-7.1-50.63-21.36-10.36-12.05-15.53-26.54-15.53-43.53,0-17.93,6.28-32.94,18.86-45.16,12.56-12.22,28.28-18.34,47.13-18.34,11.41,0,21.71,2.27,30.9,6.75,8.96,4.37,16.76,10.88,22.64,19.03l-9.66,7.39c-5.06-6.69-11.58-12.1-19.15-15.78-7.68-3.6-16.06-5.47-24.56-5.35-9.48-.06-18.85,2.33-27.11,7.04-8.03,4.43-14.72,10.95-19.32,18.86Z"></path><path class="f" d="M534.37,51.96h11.87V125.52c0,28.46-23.1,51.5-51.56,51.56-28.45-.07-51.5-23.1-51.56-51.56V51.96h11.81V125.52c0,21.94,17.8,39.69,39.74,39.69s39.69-17.75,39.69-39.69V51.96Z"></path></g><path class="e" d="M114.52,0C51.27,0,0,51.27,0,114.52s51.27,114.52,114.52,114.52,114.52-51.27,114.52-114.52S177.77,0,114.52,0Zm0,166.2c-28.49,0-51.68-23.18-51.68-51.68s23.18-51.68,51.68-51.68,51.68,23.18,51.68,51.68-23.18,51.68-51.68,51.68ZM12.67,114.52C12.67,60.49,54.97,16.17,108.19,12.89V50.49c-32.57,3.18-58.02,30.63-58.02,64.04s25.45,60.85,58.02,64.04v37.6c-53.22-3.28-95.52-47.6-95.52-101.63Zm108.18,101.63v-37.6c32.57-3.18,58.02-30.63,58.02-64.04s-25.45-60.85-58.02-64.04V12.89c53.22,3.28,95.52,47.6,95.52,101.63s-42.3,98.35-95.52,101.63Z"></path></g><path class="f" d="M997.88,48.78c0,8.57-6.72,15.29-15.48,15.29s-15.57-6.72-15.57-15.29,6.91-15.11,15.57-15.11,15.48,6.72,15.48,15.11Zm-27.18,0c0,6.72,4.98,12.07,11.79,12.07s11.51-5.35,11.51-11.98-4.88-12.16-11.6-12.16-11.7,5.43-11.7,12.07Zm9.31,7.92h-3.5v-15.11c1.38-.28,3.32-.47,5.81-.47,2.86,0,4.14,.47,5.25,1.11,.83,.65,1.47,1.84,1.47,3.32,0,1.66-1.29,2.95-3.13,3.5v.18c1.47,.56,2.3,1.66,2.76,3.68,.47,2.3,.74,3.23,1.11,3.78h-3.78c-.46-.56-.74-1.94-1.2-3.68-.27-1.66-1.19-2.4-3.13-2.4h-1.66v6.08Zm.09-8.57h1.66c1.94,0,3.5-.65,3.5-2.21,0-1.38-1.01-2.3-3.23-2.3-.92,0-1.57,.09-1.94,.19v4.33Z"></path></g></g></g></svg> 