<svg width="99" height="99" viewBox="0 0 99 99" xmlns="http://www.w3.org/2000/svg">
    <path d="M49.5 65.5605C48.776 65.5603 48.0648 65.37 47.4375 65.0086L10.3125 43.5699C8.33916 42.4301 7.6634 39.9063 8.80322 37.933C9.16523 37.3062 9.68576 36.7857 10.3125 36.4237L47.4375 15.0011C48.7148 14.2679 50.2852 14.2679 51.5625 15.0011L88.6875 36.4237C90.6609 37.5635 91.3366 40.0872 90.1968 42.0606C89.8348 42.6874 89.3143 43.2079 88.6875 43.5699L51.5625 65.0086C50.9352 65.37 50.224 65.5603 49.5 65.5605Z" fill-opacity="0.2"/>
    <path d="M88.6875 55.4135L78.4294 49.4941L51.5625 65.009C50.9351 65.3703 50.2239 65.5606 49.5 65.5609C48.7762 65.5606 48.0649 65.3703 47.4375 65.009L20.5706 49.4942L10.3125 55.4135C9.68584 55.7753 9.16518 56.296 8.80313 56.9226C7.66339 58.896 8.33915 61.4198 10.3125 62.5598L47.4375 83.9985C48.0649 84.3598 48.7762 84.5502 49.5 84.5504C50.2241 84.5502 50.9351 84.3598 51.5625 83.9985L88.6875 62.5598C89.3142 62.1977 89.8348 61.6771 90.1969 61.0504C91.3366 59.077 90.6609 56.5533 88.6875 55.4135Z" "/>
</svg>
