<svg width="16" height="17" viewBox="0 0 16 17" fill="none" xmlns="http://www.w3.org/2000/svg">
    <path d="M7.99992 15.1668C11.6818 15.1668 14.6666 12.1821 14.6666 8.50016C14.6666 4.81826 11.6818 1.8335 7.99992 1.8335C4.31802 1.8335 1.33325 4.81826 1.33325 8.50016C1.33325 12.1821 4.31802 15.1668 7.99992 15.1668Z" fill="#52A6F8"/>
    <path d="M7.99989 11.8335C7.91233 11.8336 7.82561 11.8164 7.74471 11.7829C7.6638 11.7494 7.59029 11.7003 7.52837 11.6384C7.46646 11.5765 7.41735 11.503 7.38387 11.4221C7.35038 11.3412 7.33317 11.2544 7.33322 11.1669V8.50022C7.33322 8.32341 7.40346 8.15384 7.52849 8.02881C7.65351 7.90379 7.82308 7.83355 7.99989 7.83355C8.1767 7.83355 8.34627 7.90379 8.47129 8.02881C8.59632 8.15384 8.66656 8.32341 8.66656 8.50022V11.1669C8.66661 11.2544 8.6494 11.3412 8.61591 11.4221C8.58243 11.503 8.53332 11.5765 8.4714 11.6384C8.40949 11.7003 8.33598 11.7494 8.25507 11.7829C8.17416 11.8164 8.08745 11.8336 7.99989 11.8335ZM7.99989 6.50022C7.91279 6.49915 7.82675 6.48101 7.74664 6.44683C7.6658 6.41313 7.59136 6.36579 7.52656 6.30688C7.46445 6.24482 7.41536 6.17099 7.38216 6.08971C7.34897 6.00843 7.33233 5.92134 7.33322 5.83355C7.33079 5.7461 7.34908 5.65932 7.38661 5.5803C7.42031 5.49947 7.46765 5.42502 7.52656 5.36022C7.59028 5.29991 7.66498 5.25238 7.74661 5.22022C7.90879 5.15316 8.09094 5.15316 8.25312 5.22022C8.33467 5.25253 8.40934 5.30004 8.47317 5.36022C8.59488 5.48805 8.66393 5.65706 8.66656 5.83355C8.66741 5.92134 8.65075 6.00841 8.61755 6.08968C8.58435 6.17095 8.53527 6.24478 8.4732 6.30686C8.41112 6.36893 8.33729 6.41801 8.25602 6.45121C8.17475 6.48441 8.08767 6.50107 7.99989 6.50022Z" fill="#F6F9FE"/>
</svg>
