<svg width="16" height="16" viewBox="0 0 16 16" fill="none" xmlns="http://www.w3.org/2000/svg">
    <path d="M12.6666 5.33337H9.66661L10.5333 2.20004C10.5333 2.13337 10.5333 2.06671 10.5333 2.00004C10.5333 1.60004 10.2666 1.33337 9.86661 1.33337H5.19994C4.86661 1.33337 4.66661 1.53337 4.53328 1.80004L2.73328 8.46671C2.73328 8.53337 2.73328 8.60004 2.73328 8.66671C2.73328 9.06671 2.99994 9.33337 3.39994 9.33337H5.93328L4.73328 13.8C4.73328 13.8667 4.73328 13.9334 4.73328 14C4.73328 14.4 4.99994 14.6667 5.39994 14.6667C5.59994 14.6667 5.79994 14.6 5.86661 14.4667L13.1333 6.46671C13.2666 6.33337 13.3333 6.13337 13.3333 6.00004C13.3333 5.60004 12.9999 5.33337 12.6666 5.33337Z" fill="#F6F9FE"/>
</svg>
