<svg width="1440" height="1024" viewBox="0 0 1440 1024" fill="none" xmlns="http://www.w3.org/2000/svg">
    <g opacity="0.3">
        <mask id="mesh_backround_svg_mask_41431513415245" style="mask-type:alpha" maskUnits="userSpaceOnUse" x="-193" y="-137" width="1825" height="1298">
            <rect x="-193" y="-137" width="1825" height="1298" fill="#D9D9D9"/>
        </mask>
        <g mask="url(#mesh_backround_svg_mask_41431513415245)">
            <path d="M-192.331 -137C415.738 -136.689 1023.81 -136.689 1631.87 -137C1631.87 307.997 1631.87 752.994 1631.87 1197.99C1023.81 1198.15 415.738 1198.15 -192.331 1197.99C-192.331 752.994 -193.836 307.997 -192.331 -137Z" stroke="#52A6F8" stroke-width="1.10591" stroke-miterlimit="10"/>
            <path d="M-192.321 1043.92C-92.7426 1033.66 -17.8054 989.946 71.4938 960.492C158.679 931.758 224.698 940.552 307.251 972.464C377.96 999.8 443.632 1034.59 524.418 1043.39C590.61 1050.59 656.919 1052.99 723.227 1062.31C787.509 1071.36 855.439 1083.5 921.487 1080.37C978.992 1077.59 1019.94 1056.91 1070.09 1039.96C1141.78 1015.74 1215.7 1021.77 1292.84 1025.99C1405.77 1032.18 1518.38 1041.65 1631.62 1043.94" stroke="#52A6F8" stroke-width="1.10591" stroke-miterlimit="10"/>
            <path d="M-192.321 992.447C-85.9959 975.749 -17.0526 916.861 72.0729 876.133C162.907 834.642 225.017 848.395 307.743 892.725C375.846 929.215 439.201 978.101 524.563 991.535C590.9 1001.96 658.193 1005.46 724.82 1018.28C787.045 1030.23 858.479 1048.77 924.092 1043.45C981.338 1038.79 1004.76 1011.5 1045.21 987.149C1107.73 949.536 1187.56 962.229 1262.82 967.484C1385.82 975.96 1508.24 988.844 1631.83 992.51" stroke="#52A6F8" stroke-width="1.10591" stroke-miterlimit="10"/>
            <path d="M-192.321 941.232C-80.3786 923.729 -16.2708 853.398 72.3914 806.483C162.907 758.571 228.173 775.651 308.003 825.893C374.341 867.638 435.408 925.721 524.563 940.533C591.711 951.679 658.338 955.705 725.544 970.814C787.045 984.651 859.811 1006.1 925.83 999.95C986.637 994.293 996.858 963.927 1031.34 934.642C1084.54 889.358 1174.12 906.713 1245.93 912.265C1374.58 922.182 1502.48 937.439 1631.86 941.253" stroke="#52A6F8" stroke-width="1.10591" stroke-miterlimit="10"/>
            <path d="M-192.321 889.845C-82.5502 870.964 -7.29454 808.558 85.4214 765.796C177.008 723.543 238.104 733.629 318.862 783.49C382.564 822.798 439.028 874.969 524.099 888.849C591.132 899.783 653.676 903.83 719.984 921.397C779.72 937.205 848.547 958.586 913.987 952.568C975.112 946.953 996.163 913.768 1036.09 885.712C1097.04 842.929 1176.61 857.169 1254.59 862.912C1380.4 872.151 1505.55 885.988 1632 889.908" stroke="#52A6F8" stroke-width="1.10591" stroke-miterlimit="10"/>
            <path d="M-192.321 838.515C-13.9254 816.816 175.416 667.53 349.902 760.11C408.045 791.133 450.262 827.157 524.302 837.752C589.278 847.139 640.414 853.644 701.337 875.894C755.889 895.813 814.264 917.215 877.184 912.935C946.417 908.252 992.457 869.876 1046.86 843.304C1122.55 806.39 1191.76 812.323 1280.71 817.727C1397.78 824.868 1514.32 835.675 1631.83 838.557" stroke="#52A6F8" stroke-width="1.10591" stroke-miterlimit="10"/>
            <path d="M-192.321 787.24C-69.4623 782.133 47.7791 754.777 168.003 737.718C242.708 727.123 320.425 716.782 389.832 744.923C437.812 764.376 468.244 781.392 525.055 787.134C587.194 793.491 625.849 804.341 676.898 832.312C723.691 857.952 769.006 879.355 829.552 877.024C912.365 873.845 988.808 830.659 1060.04 803.853C1230.65 739.668 1447.7 785.015 1631.86 787.219" stroke="#52A6F8" stroke-width="1.10591" stroke-miterlimit="10"/>
            <path d="M-192.321 736.045C-57.4457 738.673 76.9664 729.688 211.697 725.98C281.017 724.094 358.357 718.944 427.445 727.675C459.944 732.071 492.785 734.98 525.779 736.384C585.08 738.673 615.86 755.964 654.11 788.216C691.058 819.365 725.833 841.997 784.932 840.132C883.815 836.996 983.307 790.949 1072.66 763.614C1251.23 708.985 1443.09 736.045 1631.88 735.897" stroke="#52A6F8" stroke-width="1.10591" stroke-miterlimit="10"/>
            <path d="M-192.321 684.567C-48.2378 689.208 95.7875 694.76 239.842 699.888C308.322 702.303 384.07 711.987 451.421 697.769C537.737 679.609 586.383 681.834 640.067 741.23C671.483 775.961 695.719 799.186 756.816 797.554C866.007 794.651 981.048 746.379 1081.78 718.874C1260.44 670.137 1444.25 685.139 1631.94 684.482" stroke="#52A6F8" stroke-width="1.10591" stroke-miterlimit="10"/>
            <path d="M-192.321 633.251C20.0106 640.604 242.535 658.68 454.461 644.631C539.562 639.015 593.448 634.035 645.945 690.889C676.116 723.332 702.408 744.183 759.827 742.7C867.918 739.924 984.32 693.411 1084.97 667.474C1263.25 621.618 1445.35 633.188 1631.88 633.188" stroke="#52A6F8" stroke-width="1.10591" stroke-miterlimit="10"/>
            <path d="M-192.321 581.904C-50.091 583.324 91.4442 571.309 233.327 565.588C300.822 562.875 398.374 549.525 460.426 577.136C504.033 596.525 523.462 610.108 577.493 614.113C623.07 617.504 646.784 622.293 682.892 641.936C801.118 706.376 968.8 637.38 1094.32 609.536C1269.45 570.631 1450.68 581.841 1631.88 581.841" stroke="#52A6F8" stroke-width="1.10591" stroke-miterlimit="10"/>
            <path d="M-192.321 530.494C-51.9731 523.183 83.713 493.707 221.542 474.636C320.31 460.968 394.639 449.462 470.56 504.112C521.32 540.644 563.218 590.992 639.111 599.934C671.831 603.855 704.696 598.006 736.373 594.065C769.556 589.933 800.22 588.81 834.156 587.517C927.278 583.957 1018.2 562.957 1108.68 548.018C1279.29 519.898 1458.15 530.494 1631.88 530.494" stroke="#52A6F8" stroke-width="1.10591" stroke-miterlimit="10"/>
            <path d="M-192.321 479.09C-52.4943 462.795 76.0688 416.049 209.728 383.734C257.36 372.206 313.215 354.873 363.396 363.963C411.925 372.757 449.191 404.861 480.753 431.137C536.174 477.289 714.917 670.863 789.941 546.243C809.66 513.546 830.074 508.248 878.053 505.282C960.258 500.175 1041.19 494.178 1123.13 486.549C1290.58 470.953 1463.39 479.196 1631.88 479.196" stroke="#52A6F8" stroke-width="1.10591" stroke-miterlimit="10"/>
            <path d="M-192.321 427.744C-51.1044 407.486 70.8278 345.928 201.273 304.034C248.586 288.841 302.01 268.498 353.695 278.606C408.711 289.328 452.463 333.404 486.718 363.706C545.527 415.644 779.43 674.844 826.917 497.248C838.094 455.376 847.36 436.432 908.63 432.321C981.801 427.426 1058.79 430.371 1132.52 428.549C1298.69 424.48 1465.65 427.807 1631.91 427.807" stroke="#52A6F8" stroke-width="1.10591" stroke-miterlimit="10"/>
            <path d="M-192.321 376.422C-49.425 357.35 72.0729 291.088 202.605 247.499C249.774 231.734 302.618 211.476 354.738 221.435C411.23 232.285 454.548 277.335 488.947 308.676C544.542 359.342 792.981 634.478 832.303 445.227C841.337 401.723 853.209 380.49 915.058 376.464C986.463 371.802 1061.75 376.464 1133.59 376.464H1631.88" stroke="#52A6F8" stroke-width="1.10591" stroke-miterlimit="10"/>
            <path d="M-192.321 325.076C-44.4736 306.492 87.8247 247.541 226.522 207.978C274.386 194.332 331.486 174.074 383.201 184.16C434.105 194.162 469.257 231.33 498.531 260.827C566.577 329.378 712.543 531.597 813.974 382.672C839.484 345.228 856.481 328.573 915.087 325.119C986.752 320.88 1061.6 325.119 1133.62 325.119H1631.88" stroke="#52A6F8" stroke-width="1.10591" stroke-miterlimit="10"/>
            <path d="M-192.321 273.752C-34.7155 259.258 112.379 208.401 263.643 175.069C372.343 151.06 448.959 133.006 511.04 213.445C545.526 258.22 573.034 339.082 652.749 351.182C704.493 359.086 746.855 334.696 783.802 312.87C882.86 254.405 1012.38 273.731 1133.56 273.731H1631.88" stroke="#52A6F8" stroke-width="1.10591" stroke-miterlimit="10"/>
            <path d="M-192.321 222.427C-20.73 212.361 144.404 168.667 311.912 141.904C388.095 129.698 498.068 98.76 525.431 170.765C537.274 201.957 528.327 243.681 575.756 259.637C623.186 275.593 704.435 252.856 751.633 241.986C872.754 214.099 999.406 222.49 1125.16 222.49H1631.88" stroke="#52A6F8" stroke-width="1.10591" stroke-miterlimit="10"/>
            <path d="M-192.321 171.11C-14.7361 163.884 158.824 128.92 333.774 107.2C371.185 102.56 541.096 63.7812 535.131 118.579C531.802 149.284 486.891 165.664 541.646 180.561C590.147 193.784 676.261 178.612 727.165 175.645C1026.02 158.269 1332.08 171.068 1631.8 171.068" stroke="#52A6F8" stroke-width="1.10591" stroke-miterlimit="10"/>
            <path d="M-192.321 119.721C-9.29247 110.249 171.043 80.3491 352.363 60.6633C400.43 55.4292 466.825 41.592 516.802 48.1186C548.335 52.2507 548.509 53.84 537.071 72.3603C524.736 92.2157 484.025 99.1237 513.27 118.047C529.861 128.79 606.652 119.721 628.455 119.721H1631.88" stroke="#52A6F8" stroke-width="1.10591" stroke-miterlimit="10"/>
            <path d="M-192.186 68.3515C-24.9965 59.7483 139.79 35.2734 305.706 18.2787C335.878 15.2061 503.357 -18.2958 508.077 25.4199C510.972 51.9078 470.434 56.1671 526.666 67.9489C581.943 79.5612 662.324 68.3727 719.887 68.3727H1631.87" stroke="#52A6F8" stroke-width="1.10591" stroke-miterlimit="10"/>
            <path d="M-192.321 17.0313C-45.1106 11.543 100.131 -7.3164 246.56 -19.5432C305.687 -24.4806 399.793 -41.8567 452.347 -12.3173C474.875 0.396872 478.06 11.6278 510.635 15.9082C576.19 24.5115 652.894 17.0313 719.724 17.0313H1631.88" stroke="#52A6F8" stroke-width="1.10591" stroke-miterlimit="10"/>
            <path d="M1491.55 -137V530.496C1491.55 578.005 1494.15 625.852 1491.55 673.382C1488.65 725.574 1469.74 774.1 1455.32 824.83C1418.61 954.091 1486.31 1069.75 1491.52 1197.99" stroke="#52A6F8" stroke-width="1.10591" stroke-miterlimit="10"/>
            <path d="M1421.39 -137V530.496C1421.39 577.538 1426.75 626.382 1420.87 673.255C1414.33 725.659 1381.03 769.756 1355.83 817.922C1285.33 952.777 1404.57 1064.49 1421.36 1197.99" stroke="#52A6F8" stroke-width="1.10591" stroke-miterlimit="10"/>
            <path d="M1351.23 -137V530.496C1351.23 576.945 1358.87 627.103 1350.3 673.149C1340.37 726.613 1294.27 766.387 1259.73 811.819C1214.21 871.809 1211.52 916.075 1244.53 980.939C1281.5 1053.9 1336.52 1119.82 1351.14 1197.99" stroke="#52A6F8" stroke-width="1.10591" stroke-miterlimit="10"/>
            <path d="M1281.06 -137V530.496C1281.06 576.691 1289.54 627.484 1280.36 673.213C1269.3 728.477 1215.71 764.331 1175.28 808.471C1052.05 943.178 1255.64 1062.75 1281.03 1197.99" stroke="#52A6F8" stroke-width="1.10591" stroke-miterlimit="10"/>
            <path d="M1210.93 -137C1210.93 86.0919 1223.29 311.494 1205.6 534.246C1201.81 582.158 1208.09 633.46 1198.94 680.778C1188.98 732.249 1143.92 771.049 1110.51 814.828C1064.96 874.373 1061.28 918.406 1096.52 982.592C1136.39 1055.02 1195.26 1119.31 1210.84 1197.95" stroke="#52A6F8" stroke-width="1.10591" stroke-miterlimit="10"/>
            <path d="M1140.73 -137C1140.73 88.0203 1168.32 323.954 1118.11 546.452C1095.88 645.008 1088.32 739.687 1053.75 836.463C1033.22 893.974 1028.73 941.398 1054.64 998.93C1084.84 1066.02 1129.73 1126.71 1140.7 1197.97" stroke="#52A6F8" stroke-width="1.10591" stroke-miterlimit="10"/>
            <path d="M1070.57 -137V227.686C1070.57 280.916 1072.83 334.443 1070.57 387.609C1068.05 447.705 1046.37 504.665 1025.2 562.536C1004.29 619.75 979.739 677.578 980.116 737.271C980.376 780.224 992.248 822.584 1000.04 864.985C1009.48 916.457 1005.83 969.094 1020.77 1019.89C1038.49 1079.92 1066.46 1135.97 1070.6 1197.89" stroke="#52A6F8" stroke-width="1.10591" stroke-miterlimit="10"/>
            <path d="M1000.41 -137V227.686C1000.41 280.768 1004.03 334.633 1000.41 387.609C995.92 453.681 962.969 515.578 933.81 577.581C906.621 635.218 860.263 704.723 868.399 767.319C874.538 814.489 916.379 851.508 945.624 891.706C982.543 942.563 979.01 984.054 984.888 1039.64C990.505 1092.72 1001.57 1144.55 1000.58 1198.03" stroke="#52A6F8" stroke-width="1.10591" stroke-miterlimit="10"/>
            <path d="M930.243 -137V227.686C930.243 280.662 934.124 334.697 930.243 387.609C925.147 457.538 885.044 522.232 850.5 586.799C819.691 644.352 760.303 721.442 771.885 785.691C781.498 838.264 843.84 869.774 886.318 907.917C972.519 985.241 934.037 1104.31 930.301 1197.99" stroke="#52A6F8" stroke-width="1.10591" stroke-miterlimit="10"/>
            <path d="M860.09 -137C860.09 -15.431 853.517 107.176 861.595 228.597C865.244 283.205 873.178 338.448 869.153 393.14C864.115 462.877 823.866 524.838 786.311 588.091C752.635 644.839 692.871 718.497 704.974 783.042C714.935 836.124 776.553 867.804 819.204 906.773C906.969 986.957 861.653 1102.38 860.09 1197.99" stroke="#52A6F8" stroke-width="1.10591" stroke-miterlimit="10"/>
            <path d="M789.933 -137C789.933 -13.8841 774.413 115.165 804.613 236.671C819.468 296.406 844.485 358.324 842.053 419.501C839.534 483.22 794.884 536.323 753.072 590.592C714.04 641.215 657.519 700.421 665.366 761.64C671.823 812.794 722.466 850.64 756.866 892.554C829.979 981.554 791.352 1098.59 789.933 1198.01" stroke="#52A6F8" stroke-width="1.10591" stroke-miterlimit="10"/>
            <path d="M719.769 -137C719.769 -8.24747 701.063 125.019 754.776 249.088C783.384 315.117 831.335 387.164 833.738 457.304C835.678 513.035 782.747 553.954 736.418 594.067C690.089 634.18 638.519 674.59 638.982 730.49C639.417 780.521 676.075 825.847 698.978 871.406C749.854 972.781 720.521 1091.91 719.769 1197.99" stroke="#52A6F8" stroke-width="1.10591" stroke-miterlimit="10"/>
            <path d="M649.6 -137V58.375C649.6 138.432 666.973 196.112 710.407 271.02C750.481 339.783 816.877 416.195 824 491.612C829.183 545.477 773.762 570.016 719.76 597.563C656.636 629.773 612.624 652.51 612.826 713.347C613 757.678 629.418 801.224 639.668 844.727C666.916 959.939 649.687 1081.44 649.6 1197.99" stroke="#52A6F8" stroke-width="1.10591" stroke-miterlimit="10"/>
            <path d="M579.435 -137V58.375C579.435 144.069 602.339 201.431 654.894 279.941C703.394 352.37 787.481 436.199 796.776 517.76C802.857 571.669 745.293 584.319 686.571 599.958C614.385 619.177 576.54 630.959 572.688 691.903C569.793 737.737 575.903 784.081 578.48 829.873C585.284 952.311 579.29 1075.45 579.522 1197.97" stroke="#52A6F8" stroke-width="1.10591" stroke-miterlimit="10"/>
            <path d="M509.207 -137C506.311 -73.2594 513.116 -10.0063 515.606 53.7131C516.996 88.995 510.51 124.637 522.584 159.135C535.962 197.278 561.124 233.831 584.318 269.049C610.899 309.311 639.594 348.852 666.233 389.114C691.946 427.977 732.136 477.266 735.379 521.681C739.028 571.457 679.929 584.68 624.856 598.178C563.47 613.223 521.455 624.263 513.203 674.145C504.863 724.366 511.35 779.927 509.612 830.954C505.443 953.201 509.236 1075.87 509.294 1198.18" stroke="#52A6F8" stroke-width="1.10591" stroke-miterlimit="10"/>
            <path d="M438.901 -137C438.496 -72.5178 471.505 -17.5924 490.385 44.0715C500.924 78.4846 495.799 112.749 505.847 147.035C515.894 181.321 532.66 214.124 549.28 246.63C584.693 316.304 648.598 398.077 653.897 473.24C657.14 519.435 610.174 547.808 566.306 575.864C518.269 606.59 485.23 630.705 477.499 677.917C469.884 723.9 461.863 767.319 449.905 812.942C417.677 935.846 439.104 1073.37 439.133 1198.06" stroke="#52A6F8" stroke-width="1.10591" stroke-miterlimit="10"/>
            <path d="M368.959 -137C380.541 -67.9619 446.126 -28.2935 490.573 29.1747C530.589 80.9427 521.96 150.299 533.659 208.233C546.081 269.685 565.51 332.451 566.784 394.708C567.797 445.862 540.724 492.565 515.272 539.29C489.683 585.525 472.172 633.939 463.152 683.384C454.754 727.1 428.086 749.074 398.523 785.098C358.564 833.687 370.32 891.431 370.088 945.911C369.712 1029.95 369.133 1113.97 369.046 1198.08" stroke="#52A6F8" stroke-width="1.10591" stroke-miterlimit="10"/>
            <path d="M298.9 -137C327.247 -62.7278 425.494 -37.4054 494.843 13.3455C558.835 60.1549 540.042 109.528 521.25 167.081C505.73 214.59 483.608 262.162 478.541 311.176C471.939 374.026 472.489 437.407 465.366 500.427C461.196 537.192 456.679 573.957 454.247 610.807C452.654 635.197 459.72 665.415 452.307 689.381C438.466 734.241 394.135 735.025 348.443 755.601C277.733 787.386 300.782 857.103 300.464 909.188C299.913 1005.48 299.045 1101.75 298.813 1198.03" stroke="#52A6F8" stroke-width="1.10591" stroke-miterlimit="10"/>
            <path d="M228.756 -137C268.802 -58.2355 396.409 -43.7625 482.697 1.0127C562.122 42.1643 549.787 87.1514 496.191 136.44C458.23 171.341 404.951 200.244 394.093 247.16C388.012 273.372 396.988 308.612 399.189 334.527L410.771 470.718L422.354 606.929C424.38 630.599 438.308 670.246 427.855 694.022C407.586 740.217 343.681 724.79 293.212 732.503C200.785 746.616 231.391 827.055 231.015 880.454C230.291 986.279 229.191 1092.1 228.872 1197.95" stroke="#52A6F8" stroke-width="1.10591" stroke-miterlimit="10"/>
            <path d="M158.526 -137C197.616 -55.2053 340.541 -45.4153 431.259 -2.97107C512.624 35.1716 507.586 85.8589 440.872 128.621C392.719 159.453 330.378 175.981 317.927 227.601C311.643 253.644 320.677 290.134 323.718 315.605C329.509 364.448 337.24 413.08 344.508 461.818C351.776 510.556 359.449 559.294 365.298 608.031C368.194 631.341 381.977 671.899 371.089 695.611C348.793 743.692 278.431 721.039 226.311 724.939C128.47 732.355 161.248 817.286 160.871 871.046C160.061 979.964 158.873 1088.88 158.526 1197.82" stroke="#52A6F8" stroke-width="1.10591" stroke-miterlimit="10"/>
            <path d="M88.5494 -137C138.121 -33.8242 496.65 5.52624 333.63 141.017C292.194 175.452 238.424 199.27 227.681 248.431C212.393 318.359 240.972 401.447 250.469 470.76C256.695 516.108 263.21 561.434 268.219 606.866C270.912 631.044 282.987 668.021 273.084 692.496C254.61 738.098 198.089 728.202 148.314 739.856C62.3735 759.966 90.779 836.972 90.4026 889.608C89.7077 992.382 88.6942 1095.15 88.3757 1197.95" stroke="#52A6F8" stroke-width="1.10591" stroke-miterlimit="10"/>
            <path d="M18.1986 -137C40.2338 -64.5714 126.406 -34.248 187.039 19.1093C241.389 66.9359 231.312 115.356 193.38 166.043C162.977 206.686 123.887 240.061 117.314 288.269C108.453 353.217 126.406 423.315 133.732 487.882C140.797 550.055 164.453 625.09 150.063 687.177C139.812 731.423 100.983 739.856 60.5028 766.302C0.88313 805.271 19.9649 869.88 19.5885 922.538C19.0962 1014.36 18.3434 1106.17 18.1407 1198.01" stroke="#52A6F8" stroke-width="1.10591" stroke-miterlimit="10"/>
            <path d="M-52.0714 -137C-45.8749 -69.9749 7.25868 -24.3097 41.5711 35.0868C71.5981 87.0455 63.1431 141.801 43.598 194.714C26.2246 241.332 3.75504 284.561 1.20694 333.638C-1.68862 391.381 5.98464 449.867 10.5017 507.398C15.0188 564.93 24.5162 623.818 19.8254 681.159C16.1481 725.447 -8.11676 756.576 -30.181 796.18C-59.1366 848.478 -51.1449 904.251 -51.3186 959.727C-51.6081 1039.17 -52.0714 1118.66 -52.1293 1198.03" stroke="#52A6F8" stroke-width="1.10591" stroke-miterlimit="10"/>
        </g>
    </g>
</svg>
