<svg width="22" height="21" viewBox="0 0 22 21" xmlns="http://www.w3.org/2000/svg">
    <path d="M17 12C16.7348 12 16.4804 12.1053 16.2929 12.2929C16.1054 12.4804 16 12.7348 16 13V13.38L14.52 11.9C13.9974 11.3815 13.2911 11.0906 12.555 11.0906C11.8189 11.0906 11.1126 11.3815 10.59 11.9L9.89 12.6L7.41 10.12C6.88012 9.61559 6.17657 9.33427 5.445 9.33427C4.71343 9.33427 4.00988 9.61559 3.48 10.12L2 11.6V5.99999C2 5.73477 2.10536 5.48042 2.29289 5.29288C2.48043 5.10534 2.73478 4.99999 3 4.99999H10C10.2652 4.99999 10.5196 4.89463 10.7071 4.70709C10.8946 4.51956 11 4.2652 11 3.99999C11 3.73477 10.8946 3.48042 10.7071 3.29288C10.5196 3.10534 10.2652 2.99999 10 2.99999H3C2.20435 2.99999 1.44129 3.31606 0.87868 3.87867C0.316071 4.44128 0 5.20434 0 5.99999V18C0 18.7956 0.316071 19.5587 0.87868 20.1213C1.44129 20.6839 2.20435 21 3 21H15C15.7956 21 16.5587 20.6839 17.1213 20.1213C17.6839 19.5587 18 18.7956 18 18V13C18 12.7348 17.8946 12.4804 17.7071 12.2929C17.5196 12.1053 17.2652 12 17 12ZM3 19C2.73478 19 2.48043 18.8946 2.29289 18.7071C2.10536 18.5196 2 18.2652 2 18V14.43L4.9 11.53C5.04691 11.39 5.24206 11.3119 5.445 11.3119C5.64794 11.3119 5.84309 11.39 5.99 11.53L9.16 14.7L13.46 19H3ZM16 18C15.9986 18.1914 15.9354 18.3773 15.82 18.53L11.31 14L12.01 13.3C12.0817 13.2268 12.1673 13.1687 12.2617 13.129C12.3561 13.0893 12.4576 13.0689 12.56 13.0689C12.6624 13.0689 12.7639 13.0893 12.8583 13.129C12.9527 13.1687 13.0383 13.2268 13.11 13.3L16 16.21V18ZM20.71 3.28999L17.71 0.289988C17.6149 0.198947 17.5028 0.127582 17.38 0.0799879C17.1365 -0.0200301 16.8635 -0.0200301 16.62 0.0799879C16.4972 0.127582 16.3851 0.198947 16.29 0.289988L13.29 3.28999C13.1968 3.38323 13.1228 3.49392 13.0723 3.61574C13.0219 3.73756 12.9959 3.86813 12.9959 3.99999C12.9959 4.26629 13.1017 4.52168 13.29 4.70999C13.4783 4.89829 13.7337 5.00408 14 5.00408C14.2663 5.00408 14.5217 4.89829 14.71 4.70999L16 3.40999V8.99999C16 9.2652 16.1054 9.51956 16.2929 9.70709C16.4804 9.89463 16.7348 9.99999 17 9.99999C17.2652 9.99999 17.5196 9.89463 17.7071 9.70709C17.8946 9.51956 18 9.2652 18 8.99999V3.40999L19.29 4.70999C19.383 4.80372 19.4936 4.87811 19.6154 4.92888C19.7373 4.97965 19.868 5.00579 20 5.00579C20.132 5.00579 20.2627 4.97965 20.3846 4.92888C20.5064 4.87811 20.617 4.80372 20.71 4.70999C20.8037 4.61702 20.8781 4.50642 20.9289 4.38456C20.9797 4.26271 21.0058 4.132 21.0058 3.99999C21.0058 3.86798 20.9797 3.73727 20.9289 3.61541C20.8781 3.49355 20.8037 3.38295 20.71 3.28999Z"/>
</svg>
