<svg width="16" height="16" viewBox="0 0 16 16" xmlns="http://www.w3.org/2000/svg">
    <path d="M14.0001 1.33353H10.0001C9.82328 1.33353 9.65371 1.40377 9.52869 1.5288C9.40366 1.65382 9.33342 1.82339 9.33342 2.0002C9.33342 2.17701 9.40366 2.34658 9.52869 2.4716C9.65371 2.59663 9.82328 2.66687 10.0001 2.66687H12.3907L5.52876 9.52884C5.46628 9.59061 5.41663 9.66412 5.38265 9.74514C5.34868 9.82617 5.33107 9.91311 5.33081 10.001C5.33056 10.0888 5.34768 10.1759 5.38118 10.2571C5.41469 10.3383 5.46392 10.4121 5.52604 10.4742C5.58816 10.5364 5.66196 10.5856 5.74317 10.6191C5.82439 10.6526 5.91143 10.6697 5.99929 10.6695C6.08715 10.6692 6.17409 10.6516 6.25511 10.6176C6.33614 10.5837 6.40965 10.534 6.47142 10.4716L13.3334 3.60957V6.0002C13.3334 6.17701 13.4037 6.34658 13.5287 6.4716C13.6537 6.59663 13.8233 6.66687 14.0001 6.66687C14.1769 6.66687 14.3465 6.59663 14.4715 6.4716C14.5965 6.34658 14.6668 6.17701 14.6668 6.0002V2.0002C14.6668 1.91264 14.6496 1.82592 14.6161 1.74502C14.5826 1.66411 14.5335 1.5906 14.4716 1.52868C14.4097 1.46677 14.3362 1.41766 14.2553 1.38418C14.1744 1.35069 14.0877 1.33348 14.0001 1.33353Z" />
    <path d="M10.6666 14.6669H3.33325C2.803 14.6663 2.29463 14.4554 1.91968 14.0804C1.54473 13.7055 1.33383 13.1971 1.33325 12.6669V5.33353C1.33383 4.80328 1.54473 4.29491 1.91968 3.91996C2.29463 3.54501 2.803 3.33411 3.33325 3.33353H8.11971C8.29652 3.33353 8.46609 3.40377 8.59112 3.5288C8.71614 3.65382 8.78638 3.82339 8.78638 4.0002C8.78638 4.17701 8.71614 4.34658 8.59112 4.4716C8.46609 4.59663 8.29652 4.66687 8.11971 4.66687H3.33325C3.15648 4.66698 2.98698 4.73726 2.86198 4.86226C2.73698 4.98726 2.6667 5.15676 2.66659 5.33353V12.6669C2.66671 12.8436 2.73698 13.0131 2.86198 13.1381C2.98698 13.2631 3.15648 13.3334 3.33325 13.3335H10.6666C10.8434 13.3334 11.0129 13.2631 11.1379 13.1381C11.2629 13.0131 11.3331 12.8436 11.3333 12.6669V7.87975C11.3333 7.70294 11.4035 7.53337 11.5285 7.40835C11.6535 7.28332 11.8231 7.21309 11.9999 7.21309C12.1767 7.21309 12.3463 7.28332 12.4713 7.40835C12.5963 7.53337 12.6666 7.70294 12.6666 7.87975V12.6669C12.666 13.1971 12.4551 13.7055 12.0802 14.0804C11.7052 14.4554 11.1968 14.6663 10.6666 14.6669Z" />
</svg>
