<svg width="21" height="21" viewBox="0 0 21 21" xmlns="http://www.w3.org/2000/svg">
    <path d="M16 11.3V13.4L14.5 11.9C13.4 10.9 11.7 10.9 10.6 11.9L9.9 12.6L7.4 10.1C6.3 9.1 4.6 9.1 3.5 10.1L2 11.6V6C2 5.4 2.4 5 3 5H11.7C11.4 4.4 11.4 3.6 11.7 3H3C1.3 3 0 4.3 0 6V18C0 19.7 1.3 21 3 21H15C16.7 21 18 19.7 18 18V11.3C17.4 11.6 16.6 11.6 16 11.3ZM20.7 3.3L17.7 0.3C17.3 -0.1 16.7 -0.1 16.3 0.3L13.3 3.3C12.9 3.7 12.9 4.3 13.3 4.7C13.7 5.1 14.3 5.1 14.7 4.7L16 3.4V9C16 9.6 16.4 10 17 10C17.6 10 18 9.6 18 9V3.4L19.3 4.7C19.7 5.1 20.3 5.1 20.7 4.7C21.1 4.3 21.1 3.7 20.7 3.3Z"/>
</svg>
