<svg width="638" height="638" viewBox="0 0 638 638" fill="none" xmlns="http://www.w3.org/2000/svg">
<rect width="638" height="638" fill="#F6F9FE"/>
<path fill-rule="evenodd" clip-rule="evenodd" d="M225.099 127H353.248L461.725 240.176V460.176C461.725 487.696 439.42 510 411.901 510H225.099C197.58 510 175.275 487.695 175.275 460.176V176.824C175.275 149.305 197.58 127 225.099 127V127Z" fill="#FF6600"/>
<path d="M373.396 322.792C372.75 321.5 372.104 319.562 370.812 318.917L322.375 289.208C320.437 287.917 317.854 287.917 315.271 289.208L266.833 318.917C264.896 320.208 263.604 322.146 263.604 324.083V380.271C263.604 382.208 264.896 384.792 266.833 386.083L315.271 415.792C317.208 417.083 319.792 417.083 322.375 415.792L370.812 386.083C372.75 384.792 374.042 382.854 374.042 380.271V324.083C373.396 323.437 373.396 323.437 373.396 322.792ZM312.042 399L276.521 377.042V335.708L312.042 357.667V399ZM318.5 346.687L282.333 324.083L318.5 302.125L354.667 324.729L318.5 346.687Z" fill="white"/>
<path opacity="0.302" fill-rule="evenodd" clip-rule="evenodd" d="M353.093 127V239.246H461.725L353.093 127Z" fill="white"/>
</svg>
