<svg width="638" height="638" viewBox="0 0 638 638" fill="none" xmlns="http://www.w3.org/2000/svg">
<rect width="638" height="638" fill="#F6F9FE"/>
<path fill-rule="evenodd" clip-rule="evenodd" d="M225.057 127H353.236L461.706 240.223V460.098C461.706 487.635 439.481 510 411.944 510H225.057C197.66 510 175.295 487.635 175.295 460.098V176.762C175.294 149.365 197.66 127 225.057 127V127Z" fill="#008BF5"/>
<path opacity="0.302" fill-rule="evenodd" clip-rule="evenodd" d="M353.096 127V239.244H461.706L353.096 127Z" fill="white"/>
<path d="M271.464 323.253C283.624 311.232 300.259 303.823 318.57 303.823C336.881 303.823 353.515 311.232 365.536 323.253C377.697 335.274 385.105 351.908 385.105 370.079V399.852C385.105 403.766 383.568 407.4 380.912 409.916C378.396 412.572 374.761 414.11 370.847 414.11H363.998V370.638H371.406V370.079C371.406 355.681 365.396 342.542 355.891 333.037C346.246 323.392 333.106 317.521 318.569 317.521C304.032 317.521 290.753 323.392 281.108 333.037C271.603 342.542 265.732 355.681 265.732 370.079V370.638H273.14V414.11H266.291C262.237 414.11 258.743 412.573 256.087 409.916C253.571 407.4 251.893 403.766 251.893 399.852V370.079C251.894 351.908 259.442 335.274 271.464 323.253ZM342.193 363.23H345.967C348.903 363.23 351.558 364.488 353.376 366.305C355.333 368.262 356.451 370.918 356.451 373.854V411.036C356.451 413.971 355.333 416.627 353.376 418.444C351.558 420.401 348.903 421.659 345.967 421.659H342.193C340.236 421.659 338.559 420.82 337.301 419.562C336.043 418.304 335.344 416.627 335.344 414.67V370.08C335.344 368.262 336.043 366.445 337.301 365.327C338.558 364.069 340.236 363.23 342.193 363.23ZM291.173 363.23H294.807C296.764 363.23 298.442 364.069 299.7 365.327C300.958 366.445 301.657 368.262 301.657 370.08V414.67C301.657 416.627 300.958 418.304 299.7 419.562C298.442 420.82 296.764 421.659 294.807 421.659H291.173C288.238 421.659 285.582 420.401 283.625 418.444C281.668 416.627 280.55 413.971 280.55 411.036V373.854C280.55 370.918 281.668 368.262 283.625 366.305C285.582 364.488 288.238 363.23 291.173 363.23Z" fill="white"/>
</svg>
