<svg width="638" height="638" viewBox="0 0 638 638" fill="none" xmlns="http://www.w3.org/2000/svg">
<rect width="638" height="638" fill="#F6F9FE"/>
<path fill-rule="evenodd" clip-rule="evenodd" d="M225.099 127H353.248L461.725 240.176V460.176C461.725 487.696 439.42 510 411.901 510H225.099C197.58 510 175.275 487.695 175.275 460.176V176.824C175.275 149.305 197.58 127 225.099 127V127Z" fill="#6DD0F1"/>
<path opacity="0.302" fill-rule="evenodd" clip-rule="evenodd" d="M353.093 127V239.246H461.725L353.093 127Z" fill="white"/>
<path d="M250.967 395.069C243.996 395.069 237.852 392.953 232.638 388.667C227.423 384.381 224.583 379.115 224.119 372.868L239.298 368.427C239.66 371.835 241.002 374.675 243.48 376.946C245.907 379.167 248.643 380.302 251.741 380.302C254.323 380.302 256.388 379.734 257.989 378.599C259.538 377.463 260.364 376.017 260.364 374.158C260.364 372.661 259.693 371.37 258.453 370.286C257.214 369.253 255.562 368.375 253.6 367.756C251.587 367.085 249.315 366.413 246.888 365.742C244.41 365.123 241.931 364.245 239.505 363.212C237.078 362.128 234.858 360.889 232.845 359.443C230.831 357.998 229.179 355.984 227.94 353.35C226.7 350.769 226.081 347.723 226.081 344.212C226.081 338.584 228.508 333.834 233.309 330.065C238.163 326.296 243.997 324.385 250.864 324.385C257.628 324.385 263.565 326.038 268.574 329.342C273.633 332.595 276.783 336.932 278.022 342.25L262.223 348.859C261.5 345.916 260.158 343.541 258.144 341.837C256.182 340.081 253.755 339.204 250.864 339.204C248.644 339.204 246.889 339.617 245.598 340.546C244.307 341.424 243.636 342.612 243.636 344.109C243.636 345.606 244.514 346.794 246.217 347.672C247.921 348.601 250.038 349.273 252.568 349.737C255.098 350.15 257.886 350.873 260.829 351.854C263.823 352.835 266.56 354.022 269.09 355.519C271.62 356.965 273.736 359.237 275.44 362.335C277.144 365.484 278.022 369.254 278.022 373.642C278.022 380.044 275.544 385.207 270.587 389.183C265.578 393.107 259.073 395.069 250.967 395.069ZM303.475 394.295L279.106 325.161H297.073L311.788 372.971L326.709 325.161H344.574L320.204 394.295H303.475ZM378.96 395.069C369.408 395.069 361.302 391.971 354.59 385.827C347.93 379.632 344.574 370.957 344.574 359.754C344.574 352.164 346.277 345.659 349.737 340.185C353.144 334.712 357.481 330.737 362.799 328.207C368.117 325.677 373.951 324.386 380.405 324.386C389.389 324.386 396.721 326.503 402.4 330.737C408.079 335.023 411.591 340.96 412.933 348.601L395.533 352.112C394.81 348.24 393.055 345.142 390.267 342.87C387.479 340.547 384.122 339.411 380.25 339.411C374.829 339.411 370.492 341.218 367.136 344.884C363.832 348.55 362.128 353.507 362.128 359.754C362.128 366.002 363.78 370.958 367.085 374.624C370.389 378.238 374.674 380.097 379.941 380.097C383.968 380.097 387.324 379.168 390.112 377.258C392.849 375.399 394.501 372.921 395.017 369.926H377.979V356.088H411.333V394.294H395.224V388.202C393.882 390.267 391.661 391.971 388.719 393.21C385.776 394.449 382.523 395.069 378.96 395.069Z" fill="white"/>
</svg>
