<svg width="638" height="638" viewBox="0 0 638 638" fill="none" xmlns="http://www.w3.org/2000/svg">
  <rect width="638" height="638" fill="#F6F9FE" />
  <g style="fill:none" transform="matrix(4.6423439,0,0,4.6423439,89.204059,89.200263)">
    <path d="M 49.5,65.5605 C 48.776,65.5603 48.0648,65.37 47.4375,65.0086 L 10.3125,43.5699 C 8.33909,42.4301 7.66334,39.9063 8.80316,37.933 9.16517,37.3062 9.6857,36.7857 10.3125,36.4237 l 37.125,-21.4226 c 1.2772,-0.7332 2.8477,-0.7332 4.125,0 l 37.125,21.4226 c 1.9734,1.1398 2.6491,3.6635 1.5092,5.6369 -0.362,0.6268 -0.8825,1.1473 -1.5092,1.5093 L 51.5625,65.0086 C 50.9351,65.37 50.2239,65.5603 49.5,65.5605 Z" fill="#52a6f8" fill-opacity="0.2" />
    <path d="M 88.6875,55.4135 78.4293,49.4941 51.5625,65.009 c -0.6274,0.3613 -1.3387,0.5516 -2.0625,0.5519 -0.7239,-3e-4 -1.4351,-0.1906 -2.0625,-0.5519 L 20.5706,49.4942 10.3125,55.4135 c -0.62669,0.3618 -1.14735,0.8825 -1.5094,1.5091 -1.13974,1.9734 -0.46398,4.4972 1.5094,5.6372 l 37.125,21.4387 c 0.6274,0.3613 1.3386,0.5517 2.0625,0.5519 0.7241,-2e-4 1.4351,-0.1906 2.0625,-0.5519 l 37.125,-21.4387 c 0.6266,-0.3621 1.1473,-0.8827 1.5094,-1.5094 1.1397,-1.9734 0.4639,-4.4971 -1.5094,-5.6369 z" fill="#52a6f8" />
  </g>
</svg>
