<svg width="638" height="638" viewBox="0 0 638 638" fill="none" xmlns="http://www.w3.org/2000/svg">
<rect width="638" height="638" fill="#F6F9FE"/>
<path fill-rule="evenodd" clip-rule="evenodd" d="M225.139 127H353.237L461.74 240.199V460.121C461.74 487.652 439.392 510 411.861 510H225.139C197.608 510 175.26 487.652 175.26 460.121V176.879C175.26 149.348 197.608 127 225.139 127V127Z" fill="#FA0000"/>
<path opacity="0.302" fill-rule="evenodd" clip-rule="evenodd" d="M353.076 127V239.228H461.741L353.076 127Z" fill="white"/>
<path d="M384.816 332.023C383.521 331.051 381.577 331.051 380.12 331.699L347.893 347.893V336.233C347.893 327.974 341.415 321.496 333.156 321.496H264.491C256.394 321.496 249.754 327.974 249.754 336.233V395.019C249.754 403.278 256.394 409.756 264.491 409.756H333.156C341.415 409.756 347.893 403.278 347.893 395.019V383.359L380.12 399.554C382.549 400.687 385.464 399.716 386.76 397.286C387.083 396.638 387.246 395.829 387.246 395.019V336.233C387.246 334.451 386.274 332.832 384.816 332.023ZM298.824 385.302C287.973 385.302 279.228 376.395 279.228 365.545C279.228 354.694 287.973 345.949 298.824 345.949C309.674 345.949 318.419 354.694 318.419 365.545C318.419 376.395 309.674 385.302 298.824 385.302Z" fill="white"/>
</svg>
